<svg width="121" height="120" viewBox="0 0 121 120" fill="none" xmlns="http://www.w3.org/2000/svg">
<g clip-path="url(#clip0_77_2391)">
<path d="M26.5078 33.2173C26.1533 33.2281 25.8054 33.1201 25.5196 32.9104C25.2337 32.7007 25.0264 32.4015 24.9307 32.0603C24.193 29.7022 16.6982 28.5379 11.6186 28.4686C11.4698 28.4667 11.3239 28.4274 11.1944 28.3542C11.0649 28.2811 10.9559 28.1766 10.8775 28.0502C10.7992 27.9239 10.7539 27.7799 10.746 27.6315C10.7381 27.4831 10.7677 27.3351 10.8322 27.2011C13.1706 22.3537 17.3238 18.8268 23.1573 16.7178C27.2779 15.2292 32.1259 14.4731 37.5655 14.4731C41.7187 14.4731 44.6133 14.9271 44.7343 14.9462C44.8912 14.97 45.0388 15.0354 45.1617 15.1357C45.2846 15.236 45.3783 15.3675 45.4329 15.5163C45.4875 15.6652 45.501 15.826 45.4721 15.9819C45.4431 16.1378 45.3728 16.283 45.2684 16.4024C45.2315 16.4437 41.58 20.5969 37.5419 24.6971C29.1634 33.1922 27.244 33.2173 26.5211 33.2173H26.5078Z" fill="#8787FF"/>
<path d="M37.5656 15.3575C39.9165 15.3439 42.2653 15.4985 44.5941 15.8203C44.5941 15.8203 30.1136 32.3272 26.5078 32.3272C26.3409 32.3398 26.1749 32.2926 26.0397 32.194C25.9045 32.0954 25.809 31.9519 25.7701 31.7892C24.5043 27.7583 11.6304 27.5829 11.6304 27.5829C16.6746 17.1187 29.4821 15.3501 37.5656 15.3501M37.5656 13.5815C32.0241 13.5815 27.0743 14.3553 22.8548 15.8792C16.7941 18.0767 12.4772 21.7554 10.0355 26.8165C9.90661 27.0843 9.84731 27.3802 9.86308 27.6769C9.87885 27.9736 9.9692 28.2615 10.1258 28.5141C10.2824 28.7668 10.5001 28.9759 10.759 29.1222C11.0178 29.2686 11.3094 29.3474 11.6068 29.3515C13.7395 29.4061 15.8665 29.5986 17.9744 29.9278C22.4299 30.6544 23.9097 31.776 24.0823 32.3242C24.2339 32.8456 24.5535 33.3024 24.9915 33.6238C25.4296 33.9452 25.9615 34.1131 26.5049 34.1017C27.9802 34.1017 30.5281 33.0582 38.1601 25.3176C42.2203 21.1998 45.8851 17.0274 45.9219 16.9846C46.1302 16.7468 46.2708 16.4576 46.3292 16.1471C46.3877 15.8366 46.3618 15.5161 46.2543 15.219C46.1467 14.9218 45.9615 14.6589 45.7178 14.4575C45.4741 14.2561 45.1809 14.1236 44.8685 14.0738C44.7446 14.0532 41.7836 13.5889 37.5611 13.5889L37.5656 13.5815Z" fill="#494999"/>
<path d="M58.2353 73.0697C58.0239 73.0697 57.8149 73.0248 57.6223 72.9378C57.4296 72.8508 57.2578 72.7238 57.1182 72.5652C56.9786 72.4066 56.8744 72.2201 56.8126 72.0182C56.7509 71.8162 56.7329 71.6034 56.7599 71.3939C56.9547 69.9201 57.5212 64.9223 56.6847 62.2812C56.5854 61.9798 56.5587 61.6593 56.6066 61.3456C56.6546 61.0319 56.7758 60.7339 56.9606 60.4758C57.4622 59.7389 58.6794 58.6763 63.4344 57.8421C65.6816 57.4684 67.947 57.2131 70.221 57.0772C70.252 57.0772 70.283 57.0772 70.314 57.0772C70.5265 57.0764 70.7368 57.1213 70.9304 57.2087C71.1241 57.2962 71.2967 57.4242 71.4366 57.584C71.5765 57.7439 71.6804 57.9319 71.7412 58.1353C71.8021 58.3388 71.8185 58.5529 71.7893 58.7632C71.3851 61.7109 69.2296 71.4529 58.4699 73.0594C58.392 73.0684 58.3136 73.0719 58.2353 73.0697Z" fill="#6868D9"/>
<path d="M70.3066 57.9586C70.392 57.959 70.4763 57.9777 70.5539 58.0133C70.6314 58.049 70.7005 58.1008 70.7564 58.1653C70.8122 58.2298 70.8537 58.3054 70.8779 58.3872C70.9021 58.469 70.9086 58.555 70.8968 58.6395C70.5294 61.3219 68.5229 70.6586 58.3238 72.1796C58.2934 72.1817 58.2628 72.1817 58.2324 72.1796C58.1468 72.1798 58.0622 72.1618 57.9842 72.1269C57.9061 72.0919 57.8364 72.0406 57.7797 71.9766C57.7231 71.9126 57.6807 71.8373 57.6554 71.7556C57.6302 71.674 57.6227 71.5879 57.6334 71.5031C57.8812 69.6239 58.3961 64.7588 57.5242 62.0087C56.5741 59.0109 67.3618 58.134 70.2653 57.9527H70.3037M70.3037 56.1841C70.255 56.1841 70.2048 56.1841 70.1562 56.1841C67.8509 56.3225 65.5546 56.5818 63.2766 56.9608C59.3551 57.6491 57.1804 58.582 56.2259 59.9659C55.9659 60.3351 55.7954 60.7597 55.7278 61.206C55.6602 61.6523 55.6974 62.1083 55.8364 62.5378C56.3631 64.2017 56.3793 67.4663 55.8792 71.2673C55.8312 71.6314 55.8686 72.0017 55.9883 72.3489C56.1081 72.6962 56.3071 73.0108 56.5695 73.2681C56.8319 73.5254 57.1506 73.7182 57.5003 73.8314C57.8501 73.9445 58.2214 73.9749 58.585 73.9201C61.2141 73.5296 63.5569 72.6291 65.5501 71.2437C67.2465 70.055 68.6881 68.5397 69.7903 66.7868C71.7584 63.6991 72.4282 60.5024 72.651 58.8724C72.6971 58.5374 72.6709 58.1965 72.5741 57.8725C72.4773 57.5485 72.3121 57.249 72.0897 56.9942C71.8673 56.7393 71.5928 56.535 71.2847 56.395C70.9767 56.2551 70.6421 56.1826 70.3037 56.1826V56.1841Z" fill="#494999"/>
<path d="M69.7268 112.756C66.5902 112.756 63.8254 111.304 61.7378 108.558C60.2816 106.642 59.4864 104.558 59.1382 103.473C57.6102 103.657 56.0727 103.75 54.5336 103.752C48.8137 103.752 43.4685 102.425 38.6574 99.7947C34.2077 97.3673 30.2804 93.8817 26.9844 89.4352C17.6543 76.8516 14.5812 57.9439 19.3274 42.3787C22.3754 32.3936 29.1768 23.3 38.4818 16.7754C47.1126 10.718 57.4371 7.24414 66.8085 7.24414C71.5105 7.24414 75.8318 8.09159 79.6529 9.76144C88.1731 13.4843 94.3887 19.1232 98.1287 26.5203C100.839 31.8821 101.364 36.5055 101.465 38.1636C103.81 39.2454 108.725 41.9469 109.884 46.0117C110.438 47.9498 110.067 49.8953 108.782 51.7906C107.235 54.0721 103.859 55.2305 98.7499 55.2305C94.2633 55.2305 89.7502 54.33 88.5434 54.0736C80.3803 58.2814 76.5385 58.9991 72.4724 59.7596C70.0543 60.2018 67.5639 60.6675 64.0054 61.9232C54.454 65.2938 49.3006 69.7345 49.4112 83.5163C49.4968 94.0836 56.7157 95.2244 59.8139 95.2244C60.165 95.2244 60.4527 95.2096 60.6504 95.1949C65.3332 89.3526 70.0366 86.3887 74.6515 86.3887C78.2573 86.3887 80.7713 88.2133 81.9471 89.2996C82.1187 89.4572 82.2457 89.6572 82.3154 89.8794C82.385 90.1017 82.3949 90.3383 82.344 90.5656C82.2928 90.7934 82.183 91.0039 82.0254 91.1763C81.8679 91.3487 81.6679 91.4771 81.4455 91.5486C79.3446 92.2192 74.3638 94.3327 73.4668 99.4778C72.5609 104.689 74.8507 108.109 75.8775 109.335C76.0097 109.493 76.1034 109.68 76.1513 109.881C76.1991 110.081 76.1999 110.29 76.1534 110.491C76.107 110.692 76.0146 110.88 75.8836 111.039C75.7525 111.198 75.5864 111.325 75.398 111.41C73.3975 112.303 71.4884 112.756 69.7268 112.756Z" fill="#7A7AFF"/>
<path d="M66.8085 8.12846C71.2552 8.12846 75.5131 8.91548 79.2989 10.5721C99.0995 19.2293 100.489 36.2093 100.594 38.4657C100.595 38.5432 100.617 38.6189 100.659 38.6847C100.7 38.7504 100.758 38.8037 100.827 38.8386C106.172 41.2233 111.745 45.8275 108.056 51.2881C106.448 53.6609 102.614 54.3389 98.7617 54.3389C94.1438 54.3389 89.4935 53.3676 88.5906 53.1687C88.5592 53.1615 88.527 53.158 88.4947 53.1583C88.4224 53.1588 88.3512 53.176 88.2867 53.2085C75.1782 59.9792 73.3089 57.7022 63.7103 61.092C54.063 64.495 48.405 69.2231 48.5142 83.5266C48.6072 94.9679 56.6065 96.1116 59.8021 96.1116C60.3096 96.1116 60.6947 96.0836 60.9101 96.063C60.9701 96.0571 61.0283 96.039 61.081 96.0099C61.1338 95.9807 61.1801 95.9411 61.217 95.8935C66.5518 89.1743 71.1505 87.2745 74.6427 87.2745C77.9991 87.2745 80.339 89.0284 81.3378 89.951C81.3972 90.0034 81.4414 90.0708 81.4659 90.1461C81.4903 90.2214 81.494 90.3019 81.4767 90.3792C81.4594 90.4564 81.4216 90.5276 81.3673 90.5853C81.313 90.643 81.2442 90.685 81.1681 90.7071C79.1661 91.3452 73.5774 93.6194 72.586 99.3275C71.6064 104.965 74.1676 108.683 75.1885 109.904C75.2332 109.957 75.2649 110.02 75.2812 110.087C75.2976 110.155 75.298 110.225 75.2826 110.293C75.2672 110.361 75.2363 110.424 75.1923 110.478C75.1483 110.532 75.0925 110.575 75.0292 110.604C73.0212 111.498 71.2597 111.871 69.7179 111.871C62.9136 111.871 60.379 104.61 59.87 102.871C59.8436 102.777 59.787 102.694 59.7088 102.636C59.6306 102.577 59.5353 102.546 59.4377 102.548H59.3802C57.77 102.756 56.1483 102.861 54.5248 102.863C25.5047 102.863 12.4935 67.7699 20.1654 42.6323C26.592 21.614 48.3814 8.12846 66.8085 8.12846ZM66.8085 6.35986C62.0269 6.35986 57.0712 7.21026 52.0905 8.88748C47.0661 10.5863 42.3129 12.9991 37.9773 16.0518C33.4908 19.1773 29.5103 22.9713 26.1745 27.3015C22.7426 31.7414 20.1366 36.7608 18.4805 42.1208C13.6532 57.9439 16.7853 77.1626 26.2733 89.9628C29.646 94.5125 33.6692 98.0806 38.234 100.574C43.1808 103.273 48.6647 104.641 54.5336 104.641C55.869 104.639 57.2034 104.57 58.5318 104.434C59.1339 106.103 59.979 107.675 61.0399 109.098C63.3046 112.072 66.3113 113.644 69.7342 113.644C71.6211 113.644 73.6512 113.165 75.7669 112.222C76.0812 112.083 76.3588 111.873 76.5777 111.609C76.7967 111.344 76.9509 111.032 77.0282 110.697C77.1055 110.363 77.1038 110.015 77.0231 109.681C76.9425 109.348 76.7851 109.037 76.5636 108.775C75.6164 107.641 73.5037 104.483 74.3505 99.637C75.162 94.9694 79.7798 93.0195 81.7273 92.3976C82.0982 92.2814 82.432 92.0697 82.695 91.7837C82.958 91.4978 83.141 91.1476 83.2255 90.7686C83.31 90.3895 83.293 89.9949 83.1764 89.6245C83.0597 89.2541 82.8474 88.9209 82.5608 88.6585C81.2891 87.4794 78.5774 85.5118 74.6633 85.5118C69.8507 85.5118 64.9924 88.4816 60.2152 94.343C60.0972 94.343 59.9644 94.343 59.8198 94.343C56.2981 94.343 50.3776 92.937 50.3023 83.5118C50.1961 70.2592 55.1415 65.9939 64.3049 62.7589C67.8059 61.5238 70.2623 61.0654 72.6391 60.6203C76.7111 59.8598 80.5736 59.1362 88.6599 54.9962C90.2282 55.319 94.495 56.1075 98.741 56.1075C104.163 56.1075 107.786 54.8194 109.511 52.2755C110.93 50.1827 111.352 47.9277 110.733 45.7568C110.212 43.9322 108.981 42.1931 107.074 40.5881C105.614 39.3908 104.013 38.3775 102.305 37.5711C102.125 35.5343 101.45 31.1305 98.9121 26.1165C97.1945 22.7263 94.9262 19.644 92.1993 16.995C88.8473 13.729 84.7429 11.0245 80.0011 8.95085C76.0664 7.23237 71.6256 6.35986 66.8085 6.35986Z" fill="#494999"/>
<path d="M100.566 38.1019C100.339 34.7917 98.2644 18.864 79.2914 10.5723C60.7728 2.47799 31.2628 15.1559 21.5359 38.83C59.864 29.8662 60.0159 29.4741 81.14 35.2176C90.5468 37.7777 96.6533 38.32 100.566 38.1019Z" fill="#8787FF"/>
<path d="M96.379 47.885C73.8061 42.6367 68.7899 42.6367 60.5029 45.8659C52.2159 49.095 41.4192 57.8628 42.2277 76.3167C42.84 90.2827 49.9468 93.5796 53.3681 94.3578C50.7995 92.7042 48.5688 89.5354 48.5201 83.5266C48.405 69.2231 54.063 64.4951 63.7044 61.092C73.3458 57.6889 75.1929 59.9955 88.4121 53.1333C88.4121 53.1333 104.288 56.8179 108.042 51.2881C109.356 49.3485 109.501 47.5858 108.902 45.9823C108.017 48.4657 104.691 49.8172 96.379 47.885Z" fill="#E4E4FF"/>
<path d="M76.4337 39.3485C79.0003 39.3485 81.081 37.3993 81.081 34.9948C81.081 32.5903 79.0003 30.6411 76.4337 30.6411C73.867 30.6411 71.7863 32.5903 71.7863 34.9948C71.7863 37.3993 73.867 39.3485 76.4337 39.3485Z" fill="#2E2E5B"/>
<path d="M78.1689 34.6421C78.6808 33.6183 78.0546 32.2688 76.7702 31.628C75.4858 30.9871 74.0296 31.2976 73.5177 32.3215C73.0058 33.3453 73.632 34.6948 74.9165 35.3356C76.2009 35.9765 77.6571 35.666 78.1689 34.6421Z" fill="white"/>
<path d="M74.1248 35.5285C74.9332 35.3811 75.8406 36.1917 75.6473 36.4953C75.6739 36.6899 73.9684 37.0848 73.6556 36.2787C73.4313 35.7024 74.1248 35.5285 74.1248 35.5285Z" fill="white"/>
<path d="M44.6045 15.8145C44.6045 15.8145 19.261 11.7777 11.6408 27.583C11.6408 27.583 24.5147 27.7555 25.7835 31.7923C27.0523 35.8291 44.6045 15.8145 44.6045 15.8145Z" fill="#8787FF"/>
<path d="M40.8128 15.452C33.4537 15.0246 17.4226 15.5744 11.6304 27.5831C11.6304 27.5831 12.014 27.5831 12.6631 27.6185C14.5811 24.4335 20.72 16.7829 39.9113 16.6001C40.1518 16.214 40.7434 15.8441 40.8128 15.452Z" fill="#A5A5FF"/>
<path d="M81.3466 89.9508C81.3377 89.942 81.3259 89.9331 81.3171 89.9228L81.264 89.8757L81.2197 89.8359L81.1681 89.7902L81.1209 89.7489L81.0619 89.6988C81.0456 89.6855 81.0309 89.6708 81.0132 89.6575L80.9114 89.5721L80.8583 89.5293L80.7933 89.4777L80.7329 89.4291L80.6694 89.3805L80.6045 89.3304L80.5337 89.2773L80.4393 89.208L80.3448 89.1387L80.2711 89.0872L80.1988 89.0371L80.1206 88.984L80.0468 88.9339L79.9657 88.8808L79.8816 88.8278L79.7473 88.7438L79.6544 88.6863L79.5644 88.6332L79.4818 88.5861L79.3873 88.5315L79.3032 88.4858L79.2059 88.4328L79.1114 88.3827L78.9433 88.2972L78.8459 88.2486L78.7411 88.1985L78.6482 88.1557L78.539 88.1056L78.4431 88.0643L78.3325 88.0172L78.2189 87.9715L78.0315 87.8978L77.9238 87.8565L77.8058 87.8153L77.6995 87.7784C77.6597 87.7651 77.6199 87.7504 77.5786 87.7386L77.4679 87.7032L77.3469 87.6649L77.1876 87.6207L77.0105 87.5735L76.891 87.5426L76.7612 87.5131C76.7219 87.5023 76.682 87.4935 76.6417 87.4866L76.5089 87.4586L76.385 87.435L76.2537 87.41L76.0176 87.3731L75.8849 87.3554L75.7506 87.3392L75.6119 87.323L75.4777 87.3112L75.3301 87.2994L75.1826 87.2906H75.0351C74.9554 87.2906 74.8757 87.2906 74.7946 87.2832H74.4995H74.352H74.2044H74.0569L73.8858 87.295L73.6925 87.3112L73.4727 87.3348L73.3251 87.3539L73.1584 87.3775L73.0109 87.4026L72.8427 87.4321L72.6952 87.4601L72.4916 87.5028L72.2894 87.5485L72.0667 87.603L71.9191 87.6443L71.804 87.6767C62.4341 99.9183 71.9826 107.842 75.2947 110.079C75.2783 110.013 75.247 109.952 75.2032 109.901L75.1929 109.887L75.1649 109.853L75.0896 109.761L75.041 109.7L74.9775 109.619L74.9156 109.539L74.858 109.461L74.7872 109.366L74.7311 109.289C74.7061 109.254 74.6795 109.217 74.6544 109.178L74.6013 109.102L74.5157 108.976C74.4995 108.953 74.4833 108.929 74.4685 108.904L74.3741 108.757L74.3343 108.694L74.231 108.527L74.2118 108.495C74.082 108.278 73.9492 108.044 73.8179 107.79C73.8151 107.785 73.8127 107.78 73.8105 107.775L73.7043 107.563L73.6659 107.488L73.5715 107.285L73.5243 107.184C73.4948 107.118 73.4653 107.051 73.4358 106.981L73.3871 106.866C73.3576 106.798 73.331 106.729 73.303 106.66C73.2853 106.618 73.2691 106.577 73.2528 106.534L73.1732 106.324L73.1245 106.188C73.0994 106.116 73.0743 106.041 73.0507 105.971C73.0345 105.924 73.0183 105.876 73.0035 105.824L72.9327 105.601C72.9179 105.551 72.9047 105.501 72.8899 105.454C72.8678 105.377 72.8456 105.307 72.825 105.223C72.8117 105.173 72.7999 105.122 72.7866 105.075C72.766 104.993 72.7453 104.913 72.7247 104.829L72.7025 104.726C72.6642 104.558 72.6302 104.387 72.5978 104.212L72.5624 104.016C72.5506 103.943 72.5402 103.868 72.5299 103.796C72.5196 103.724 72.5063 103.649 72.4975 103.576C72.4886 103.504 72.4798 103.429 72.4709 103.355C72.462 103.282 72.4532 103.208 72.4458 103.121C72.4384 103.034 72.4325 102.974 72.4266 102.898C72.4207 102.823 72.4134 102.736 72.4089 102.654C72.4045 102.571 72.4001 102.506 72.3971 102.428C72.3942 102.35 72.3971 102.257 72.3868 102.17C72.3765 102.083 72.3868 102.023 72.3868 101.943C72.3868 101.864 72.3868 101.764 72.3868 101.674C72.3868 101.584 72.3868 101.526 72.3868 101.447C72.3868 101.367 72.3942 101.255 72.3986 101.152C72.403 101.049 72.3986 101.005 72.4104 100.928C72.4104 100.825 72.4252 100.722 72.434 100.617C72.434 100.546 72.4458 100.47 72.4532 100.405C72.4635 100.287 72.4783 100.169 72.493 100.05L72.5152 99.8668C72.5402 99.6855 72.5683 99.5027 72.6007 99.317C72.6288 99.1578 72.6612 99.0001 72.6952 98.8454C72.7025 98.8159 72.7099 98.785 72.7158 98.754C72.7512 98.6056 72.7896 98.4583 72.8309 98.3119C72.8383 98.2853 72.8471 98.2588 72.8545 98.2323C72.8958 98.0952 72.9386 97.9596 72.9843 97.827L72.9976 97.7872C73.0463 97.6398 73.0994 97.5101 73.154 97.3745L73.1894 97.2905C73.2455 97.1579 73.303 97.0267 73.3635 96.8999L73.39 96.8425C73.4476 96.7231 73.5081 96.6066 73.57 96.4917C73.5789 96.4725 73.5892 96.4534 73.5995 96.4357C73.6659 96.3133 73.7338 96.194 73.8046 96.0761L73.8504 96.0024C73.9226 95.8845 73.9979 95.768 74.0731 95.656L74.0953 95.6251C74.1676 95.5175 74.2428 95.4128 74.3195 95.3097L74.3623 95.2507C74.442 95.1446 74.5246 95.04 74.6072 94.9383L74.6588 94.8764C74.7444 94.7732 74.8315 94.6715 74.92 94.5713C75.01 94.4711 75.1014 94.3738 75.1929 94.2765L75.2475 94.2205C75.3375 94.1291 75.4275 94.0392 75.519 93.9523L75.5706 93.9036C75.6577 93.8211 75.7462 93.7386 75.8362 93.6605L75.8642 93.6339C75.9586 93.5514 76.0545 93.4689 76.1593 93.3893L76.2198 93.3392C76.3157 93.261 76.4116 93.1918 76.5075 93.1107L76.5517 93.0768C76.6417 93.0076 76.7317 92.9412 76.8232 92.8749L76.8674 92.8425C76.9658 92.7717 77.0642 92.7039 77.1625 92.6391L77.2245 92.5964C77.3233 92.53 77.4222 92.4667 77.5195 92.4033L77.5461 92.3871L77.8264 92.2146L77.8795 92.1822C77.9754 92.1247 78.0713 92.0702 78.1657 92.0157L78.2248 91.9832L78.5198 91.8241C78.6157 91.7725 78.7116 91.7224 78.8061 91.6767L78.8651 91.6472L79.1336 91.5146L79.1852 91.491C79.2693 91.4512 79.3519 91.4114 79.4345 91.3746L79.4611 91.3613L79.7193 91.2478L79.7724 91.2257L80.0173 91.1225L80.0527 91.1078L80.2711 91.0208L80.305 91.0076L80.5248 90.925L80.572 90.9073L80.7786 90.8337H80.7948L80.9778 90.7703L81.0132 90.7585L81.1843 90.7025H81.1976C81.2712 90.6775 81.337 90.6336 81.3882 90.5752C81.4395 90.5168 81.4744 90.4459 81.4895 90.3697C81.5047 90.2935 81.4994 90.2146 81.4743 90.1411C81.4492 90.0676 81.4052 90.0019 81.3466 89.9508Z" fill="#6E6EE6"/>
<path d="M101.401 39.1438L97.3616 36.7871L102.019 37.4872L101.401 39.1438Z" fill="#494999"/>
<path d="M33.9761 69.5221C33.9761 69.5221 41.8146 55.7329 50.1179 52.688C50.1179 52.688 42.8341 60.2944 37.0418 78.9988C37.0418 78.9988 33.9421 74.06 33.9761 69.5221Z" fill="#6868D9"/>
<path d="M51.2966 51.6343C51.1741 51.8583 50.823 52.1074 50.6386 52.2887C49.0674 53.7625 47.9254 55.6063 46.8735 57.4648C45.975 59.0683 45.1739 60.7278 44.4038 62.3962C42.1303 67.4175 40.1621 72.6378 38.3076 77.8301C38.2132 78.0674 38.0967 78.4978 37.927 78.7071C37.2291 79.5914 35.919 79.3276 35.5517 78.2649C34.7548 76.5303 34.1259 74.7235 33.6736 72.8692C32.4667 67.9629 32.5523 62.5804 34.6178 57.9217C35.6292 55.6221 37.0601 53.5305 38.8373 51.7537C38.4906 52.2695 38.1129 52.7574 37.8045 53.2894C32.9905 60.5967 33.554 69.839 37.1539 77.5221L37.2469 77.7167C37.2096 77.6422 37.1515 77.5802 37.0796 77.5382C37.0077 77.4962 36.9251 77.476 36.8419 77.4801C36.7587 77.4842 36.6785 77.5123 36.611 77.5611C36.5436 77.6099 36.4918 77.6773 36.462 77.755L36.4708 77.7285L36.4915 77.6739C37.3767 75.189 38.3199 72.7253 39.3212 70.2827C41.2391 65.6961 43.3563 61.1449 46.1462 57.0094C47.3958 55.226 48.7546 53.4398 50.5604 52.1811L50.9469 51.9232C51.0816 51.8455 51.2023 51.7459 51.304 51.6284L51.2966 51.6343Z" fill="#494999"/>
<path d="M97.3615 55.2379C95.5763 55.596 93.741 55.6019 91.9322 55.4133C87.3394 55.0109 83.0403 52.3904 80.2858 48.7295C79.7283 48.0108 79.2495 47.2346 78.8577 46.4141C79.4994 47.0522 80.1515 47.655 80.8184 48.2342C86.2329 52.9711 90.3462 54.243 97.3615 55.2379Z" fill="#494999"/>
<path d="M34.8037 19.6243C36.4291 17.9337 38.1592 16.3467 39.9837 14.8727C40.5738 14.3569 41.22 13.8528 41.9503 13.5463C42.9462 13.1041 43.9863 12.8094 45.1017 12.8285L45.1754 12.9892C44.3164 13.9714 43.3118 14.8163 42.1967 15.4947C41.6538 15.8145 41.0666 16.0577 40.5104 16.3554C38.6087 17.4342 36.8043 18.6619 34.9129 19.7658L34.8037 19.6273V19.6243Z" fill="#494999"/>
<path d="M22.8785 33.6037C22.8342 32.4247 23.2739 31.3355 23.9112 30.3878C24.3022 29.8587 24.823 29.4298 25.27 28.9538C26.4694 27.6967 27.7658 26.5357 29.1473 25.4814L29.2741 25.6038C29.0312 25.9624 28.7853 26.3161 28.5365 26.6649C27.8312 27.6863 27.0611 28.8064 26.378 29.8351C25.9133 30.5337 25.602 31.337 25.0192 31.9516C24.439 32.6118 23.7731 33.1917 23.0393 33.6759L22.877 33.6037H22.8785Z" fill="#494999"/>
</g>
<defs>
<clipPath id="clip0_77_2391">
<rect width="101.28" height="107.28" fill="white" transform="translate(9.86 6.35986)"/>
</clipPath>
</defs>
</svg>
