<svg width="74" height="80" viewBox="0 0 74 80" fill="none" xmlns="http://www.w3.org/2000/svg">
<path fill-rule="evenodd" clip-rule="evenodd" d="M68.8614 54.5975V26.1444C68.8614 24.3324 67.9061 22.6544 66.3476 21.7287L39.6254 5.85722C38.0074 4.89619 35.9931 4.89619 34.3751 5.85722L7.65286 21.7287C6.09436 22.6544 5.13913 24.3324 5.13913 26.1444V54.5975C5.13913 56.4477 6.13463 58.1549 7.74522 59.0668L34.4674 74.1964C36.0387 75.086 37.9618 75.086 39.533 74.1964L66.2553 59.0668C67.8659 58.1549 68.8614 56.4477 68.8614 54.5975ZM5.02771 17.3131C1.9107 19.1644 0.000244141 22.5203 0.000244141 26.1444V54.5975C0.000244141 58.2978 1.99123 61.7122 5.21242 63.536L31.9346 78.6656C35.0771 80.4448 38.9233 80.4448 42.0658 78.6656L68.7881 63.536C72.0093 61.7122 74.0002 58.2978 74.0002 54.5975V26.1444C74.0002 22.5203 72.0898 19.1644 68.9728 17.3131L42.2506 1.44155C39.0145 -0.480514 34.986 -0.480517 31.7499 1.44154L5.02771 17.3131Z" fill="#AFAFFF"/>
</svg>
