<svg width="74" height="80" viewBox="0 0 74 80" fill="none" xmlns="http://www.w3.org/2000/svg">
<path fill-rule="evenodd" clip-rule="evenodd" d="M68.8611 54.5975V26.1444C68.8611 24.3324 67.9059 22.6544 66.3474 21.7287L39.6252 5.85722C38.0071 4.89619 35.9929 4.89619 34.3748 5.85722L7.65262 21.7287C6.09412 22.6544 5.13889 24.3324 5.13889 26.1444V54.5975C5.13889 56.4477 6.13438 58.1549 7.74498 59.0668L34.4672 74.1964C36.0385 75.086 37.9616 75.086 39.5328 74.1964L66.255 59.0668C67.8656 58.1549 68.8611 56.4477 68.8611 54.5975ZM5.02746 17.3131C1.91045 19.1644 0 22.5203 0 26.1444V54.5975C0 58.2978 1.99099 61.7122 5.21218 63.536L31.9344 78.6656C35.0769 80.4448 38.9231 80.4448 42.0656 78.6656L68.7878 63.536C72.009 61.7122 74 58.2978 74 54.5975V26.1444C74 22.5203 72.0895 19.1644 68.9725 17.3131L42.2503 1.44155C39.0142 -0.480514 34.9858 -0.480517 31.7497 1.44154L5.02746 17.3131Z" fill="#FFCA5F"/>
</svg>
